<svg width="18" height="17" viewBox="0 0 18 17" fill="none" xmlns="http://www.w3.org/2000/svg">
<path d="M2.53018 16.776H8.16405V10.8126H6.13991V8.8467H8.16405V6.38928C8.16405 5.03425 9.29908 3.93187 10.6942 3.93187H13.2244V5.8978H11.2003C10.6422 5.8978 10.1882 6.33873 10.1882 6.88076V8.8467H13.1331L12.7957 10.8126H10.1882V16.776H14.7425C16.1377 16.776 17.2727 15.6736 17.2727 14.3185V2.45742C17.2727 1.10238 16.1377 0 14.7425 0H2.53018C1.13502 0 0 1.10238 0 2.45742V14.3185C0 15.6736 1.13502 16.776 2.53018 16.776ZM1.01207 2.45742C1.01207 1.64442 1.69311 0.982966 2.53018 0.982966H14.7425C15.5796 0.982966 16.2606 1.64442 16.2606 2.45742V14.3185C16.2606 15.1315 15.5796 15.793 14.7425 15.793H11.2003V11.7956H13.6531L14.3278 7.86373H11.2003V6.88076H14.2365V2.9489H10.6942C8.74099 2.9489 7.15198 4.49221 7.15198 6.38928V7.86373H5.12783V11.7956H7.15198V15.793H2.53018C1.69311 15.793 1.01207 15.1315 1.01207 14.3185V2.45742Z" fill="white"/>
</svg>
