<svg width="18" height="14" viewBox="0 0 18 14" fill="none" xmlns="http://www.w3.org/2000/svg">
<path d="M17.2727 1.83371C16.1862 1.88234 16.2099 1.87837 16.0871 1.88836L16.7306 0.103532C16.7306 0.103532 14.722 0.821174 14.2128 0.949548C12.8755 -0.217852 10.8877 -0.269432 9.46657 0.578888C8.30282 1.27375 7.67818 2.467 7.88652 3.86171C5.62162 3.55646 3.7133 2.51372 2.20666 0.755899L1.73014 0.200037L1.37407 0.835125C0.924043 1.63762 0.774605 2.55519 0.953167 3.41874C1.02644 3.77302 1.15097 4.11091 1.32347 4.4273L0.914687 4.27346L0.866192 4.93683C0.817038 5.6107 1.04805 6.39733 1.48424 7.04086C1.60706 7.2221 1.7652 7.42112 1.96563 7.61746L1.75439 7.58598L2.01215 8.34611C2.35096 9.34482 3.05467 10.1175 3.9679 10.547C3.05585 10.9229 2.31907 11.1628 1.10801 11.5497L0 11.9035L1.02341 12.4469C1.41361 12.6541 2.79242 13.3462 4.15477 13.5538C7.18308 14.0151 10.5926 13.6394 12.888 11.6316C14.8213 9.94049 15.4557 7.53491 15.3239 5.03154C15.304 4.65257 15.4109 4.29086 15.6249 4.01325C16.0536 3.45739 17.2701 1.83742 17.2727 1.83371ZM14.8157 3.4245C14.4602 3.88539 14.2822 4.47402 14.3141 5.08172C14.4471 7.60684 13.7397 9.56509 12.2114 10.9018C10.4262 12.4634 7.54666 13.0764 4.31146 12.5835C3.72556 12.4943 3.12003 12.2945 2.61887 12.0949C3.63424 11.7556 4.41833 11.4532 5.68461 10.8711L7.45231 10.0585L5.50064 9.93716C4.56579 9.87905 3.78737 9.43902 3.30887 8.72458C3.56294 8.71024 3.80792 8.67031 4.05185 8.60427L5.91324 8.10075L4.0363 7.65432C3.12425 7.43738 2.60437 6.90737 2.32882 6.50087C2.14789 6.23376 2.02968 5.96011 1.95878 5.70785C2.14696 5.75687 2.36638 5.79181 2.72021 5.82585L4.45747 5.99275L3.08102 4.94989C2.08924 4.19858 1.6918 3.06984 1.98316 1.98473C5.07842 5.10283 8.71265 4.86848 9.07847 4.95091C8.99796 4.19129 8.99585 4.1895 8.97476 4.11718C8.50628 2.50873 9.53299 1.69202 9.99606 1.41556C10.9633 0.838197 12.4987 0.751163 13.5622 1.70239C13.7919 1.90768 14.1025 1.98845 14.3932 1.91831C14.6541 1.85534 14.8682 1.78865 15.0779 1.71608L14.6414 2.92661L15.1986 2.927C15.0935 3.06395 14.9673 3.2279 14.8157 3.4245Z" fill="white"/>
</svg>
