<svg width="12" height="12" viewBox="0 0 12 12" fill="none" xmlns="http://www.w3.org/2000/svg">
<path d="M11.7396 5.21046C11.9758 4.98026 12.0592 4.64241 11.9573 4.32835C11.8552 4.01429 11.5892 3.7901 11.2624 3.74252L8.35677 3.32033C8.23302 3.30231 8.12609 3.2247 8.07082 3.11248L6.77181 0.479619C6.62596 0.183822 6.32992 0 6 0C5.67032 0 5.37428 0.183822 5.22843 0.479619L3.92918 3.11248C3.87391 3.2247 3.76674 3.30231 3.64299 3.32033L0.737401 3.74276C0.410847 3.7901 0.144845 4.01429 0.0427218 4.32835C-0.0591613 4.64241 0.0242195 4.98026 0.260425 5.21046L2.36272 7.25965C2.45235 7.34712 2.49344 7.47303 2.4723 7.59606L1.9761 10.4899C1.92035 10.815 2.05131 11.1372 2.31827 11.3314C2.58499 11.5258 2.93221 11.551 3.22465 11.397L5.82315 10.0307C5.93392 9.97253 6.06608 9.97253 6.17685 10.0307L8.77559 11.397C8.90247 11.4638 9.03991 11.4967 9.17664 11.4967C9.35421 11.4967 9.53107 11.4412 9.68197 11.3314C9.94893 11.1372 10.0799 10.815 10.0241 10.4899L9.5277 7.5963C9.50656 7.47303 9.54765 7.34736 9.63727 7.25989L11.7396 5.21046ZM9.05433 7.67752L9.55053 10.5711C9.57552 10.7167 9.51905 10.8558 9.39939 10.9428C9.27948 11.0296 9.13026 11.0401 8.9993 10.9719L6.40056 9.60537C6.27537 9.53977 6.13745 9.50661 6 9.50661C5.86255 9.50661 5.72487 9.53977 5.59944 9.60561L3.00118 10.9719C2.86974 11.0401 2.72052 11.0296 2.60085 10.9428C2.48119 10.8558 2.42496 10.7169 2.44971 10.5711L2.94591 7.67752C2.99373 7.3983 2.90122 7.11331 2.69841 6.9158L0.59587 4.86636C0.489902 4.76303 0.453859 4.61742 0.499754 4.47685C0.545409 4.33604 0.660028 4.23944 0.806364 4.21806L3.71171 3.79587C3.99213 3.75526 4.23459 3.57936 4.35978 3.32514L5.65903 0.692276C5.72439 0.559636 5.85198 0.480581 5.99976 0.480581C6.14778 0.480581 6.27513 0.559636 6.34073 0.692276L7.63998 3.32514C7.76517 3.57936 8.00739 3.75526 8.2878 3.79587L11.1934 4.21806C11.3397 4.23944 11.4544 4.33604 11.5 4.47685C11.5457 4.61742 11.5099 4.76303 11.4039 4.86636L9.30159 6.91556C9.09878 7.11331 9.00627 7.39806 9.05433 7.67752Z" fill="#9D2929"/>
</svg>
